<?xml version="1.0" encoding="UTF-8" standalone="no"?>
<!-- Created with Inkscape (http://www.inkscape.org/) -->
<svg xmlns:dc="http://purl.org/dc/elements/1.1/" xmlns:cc="http://creativecommons.org/ns#" xmlns:rdf="http://www.w3.org/1999/02/22-rdf-syntax-ns#" xmlns:svg="http://www.w3.org/2000/svg" xmlns="http://www.w3.org/2000/svg" xmlns:xlink="http://www.w3.org/1999/xlink" xmlns:sodipodi="http://sodipodi.sourceforge.net/DTD/sodipodi-0.dtd" xmlns:inkscape="http://www.inkscape.org/namespaces/inkscape" width="429.24377" height="395.08643" id="svg2" version="1.1" inkscape:version="0.48.4 r9939" sodipodi:docname="bird.svg">
  <defs id="defs4"/>
  <sodipodi:namedview id="base" pagecolor="#ffffff" bordercolor="#666666" borderopacity="1.0" inkscape:pageopacity="0.0" inkscape:pageshadow="2" inkscape:zoom="1.979899" inkscape:cx="255.8091" inkscape:cy="190.35302" inkscape:document-units="px" inkscape:current-layer="layer1" showgrid="false" inkscape:window-width="1631" inkscape:window-height="1026" inkscape:window-x="1415" inkscape:window-y="24" inkscape:window-maximized="1" fit-margin-top="0" fit-margin-left="0" fit-margin-right="0" fit-margin-bottom="0"/>
  <metadata id="metadata7">
    <rdf:RDF>
      <cc:Work rdf:about="">
        <dc:format>image/svg+xml</dc:format>
        <dc:type rdf:resource="http://purl.org/dc/dcmitype/StillImage"/>
        <dc:title/>
      </cc:Work>
    </rdf:RDF>
  </metadata>
  <g inkscape:label="Calque 1" inkscape:groupmode="layer" id="layer1" style="opacity:0.46296297;display:none" transform="translate(-132.36552,-341.84718)"/>
  <g inkscape:groupmode="layer" id="layer2" inkscape:label="bird" style="display:inline" transform="translate(-132.36552,-341.84718)">
    <path style="fill:#d38d5f;fill-opacity:1;stroke:#000000;stroke-width:7;stroke-linecap:round;stroke-linejoin:round;stroke-miterlimit:4;stroke-opacity:1;stroke-dasharray:none" d="m 256.07367,576.07526 -120.20815,-32.32488 81.31728,-74.24621 31.8198,50.50763 0,0" id="path2996" inkscape:connector-curvature="0" sodipodi:nodetypes="ccccc"/>
    <path style="fill:#d38d5f;fill-opacity:1;stroke:#000000;stroke-width:7;stroke-linecap:butt;stroke-linejoin:miter;stroke-miterlimit:4;stroke-opacity:1;stroke-dasharray:none" d="m 474.75139,363.94322 c -20.54101,-15.30498 -45.13696,-25.00055 -118.18785,-13.63706 -22.72843,3.53554 -47.90942,24.36135 -73.74113,59.09393 -25.83171,34.73258 -34.85027,128.28937 -34.85027,128.28937 l -48.48732,-20.20305 c 0,0 6.48848,14.77082 16.29872,32.38403 9.81023,17.6132 22.94222,38.06879 36.22922,49.43833 13.287,11.36954 71.62957,41.16306 103.03555,45.45686 31.40598,4.2938 53.85972,-4.10276 76.7716,-11.11168 22.91188,-7.00892 45.26579,-18.50902 59.599,-28.78935 14.33321,-10.28033 19.4404,-15.82411 27.77919,-28.28427 8.33879,-12.46016 9.40623,-59.25596 8.08122,-85.86296 -1.32501,-26.607 -4.96571,-50.71873 -14.14213,-72.22591 -9.17642,-21.50718 -17.84479,-39.24326 -38.3858,-54.54824 z" id="path3851" inkscape:connector-curvature="0" sodipodi:nodetypes="zszccszzzzzzzz"/>
    <path sodipodi:nodetypes="czzzzzccccczccc" inkscape:connector-curvature="0" id="path3898" d="m 524.52171,492.73768 c 0,0 -42.92206,6.5076 -65.40738,9.09137 -22.48532,2.58377 -64.63542,-1.67571 -72.2259,5.55583 -7.59048,7.23154 -6.60753,12.91224 -7.07107,24.24367 -0.46354,11.33143 2.95681,28.59859 8.58629,41.92133 5.62948,13.32274 15.68286,26.90087 24.74874,36.36549 9.06588,9.46462 27.7792,20.70812 27.7792,20.70812 l -1.2627,-2.52538 26.01144,-12.12182 21.97081,-12.12184 18.94036,-16.16244 c 0,0 9.59025,-11.42719 12.37437,-18.43528 2.78413,-7.00809 3.78807,-22.72843 3.78807,-22.72843 l 1.76777,-28.28428 z" style="fill:#f4e3d7;fill-opacity:1;stroke:none"/>
    <path style="fill:#ffe680;stroke:#000000;stroke-width:7;stroke-linecap:round;stroke-linejoin:round;stroke-miterlimit:4;stroke-opacity:1;stroke-dasharray:none" d="m 454.56865,416.47115 -32.82996,33.84012 50.50763,35.35533 85.86296,-43.94163 z" id="path3839" inkscape:connector-curvature="0"/>
    <path style="fill:none;stroke:#000000;stroke-width:7;stroke-linecap:butt;stroke-linejoin:round;stroke-miterlimit:4;stroke-opacity:1;stroke-dasharray:none" d="m 554.57375,442.73512 -83.84266,10.10153 z" id="path3841" inkscape:connector-curvature="0"/>
    <path sodipodi:type="arc" style="fill:none;stroke:none" id="path3843" sodipodi:cx="398.00009" sodipodi:cy="466.97879" sodipodi:rx="60.609154" sodipodi:ry="91.418808" d="m 458.60925,466.97879 c 0,50.48921 -27.13565,91.41881 -60.60916,91.41881 -33.47351,0 -60.60915,-40.9296 -60.60915,-91.41881 0,-50.48921 27.13564,-91.41881 60.60915,-91.41881 33.47351,0 60.60916,40.9296 60.60916,91.41881 z"/>
    <path sodipodi:type="arc" style="fill:#000000;fill-opacity:1;stroke:none" id="path3865" sodipodi:cx="302.79321" sodipodi:cy="435.41153" sodipodi:rx="26.516504" sodipodi:ry="26.011429" d="m 329.30972,435.41153 c 0,14.36572 -11.87185,26.01143 -26.51651,26.01143 -14.64466,0 -26.5165,-11.64571 -26.5165,-26.01143 0,-14.36572 11.87184,-26.01143 26.5165,-26.01143 14.37609,0 26.13374,11.23759 26.50754,25.33508" sodipodi:start="0" sodipodi:end="6.2571805" sodipodi:open="true" transform="matrix(0.5544789,-0.09105006,0.12585495,0.76643456,176.57163,82.546875)"/>
    <path transform="matrix(0.49194337,-0.12341138,0.16401,0.70726166,231.92682,114.82724)" sodipodi:open="true" sodipodi:end="6.2571805" sodipodi:start="0" d="m 329.30972,435.41153 c 0,14.36572 -11.87185,26.01143 -26.51651,26.01143 -14.64466,0 -26.5165,-11.64571 -26.5165,-26.01143 0,-14.36572 11.87184,-26.01143 26.5165,-26.01143 14.37609,0 26.13374,11.23759 26.50754,25.33508" sodipodi:ry="26.011429" sodipodi:rx="26.516504" sodipodi:cy="435.41153" sodipodi:cx="302.79321" id="path3867" style="fill:#000000;fill-opacity:1;stroke:none" sodipodi:type="arc"/>
    <path style="fill:none;stroke:#000000;stroke-width:7;stroke-linecap:round;stroke-linejoin:round;stroke-miterlimit:4;stroke-opacity:1;stroke-dasharray:none" d="m 353.40545,644.59231 23.38145,66.33831 -14.17277,-0.056 -18.65719,5.61185 -0.0284,-0.0171" id="path3888" inkscape:connector-curvature="0" sodipodi:nodetypes="ccccc"/>
    <path style="fill:none;stroke:#000000;stroke-width:7;stroke-linecap:round;stroke-linejoin:round;stroke-miterlimit:4;stroke-opacity:1;stroke-dasharray:none" d="m 397.67857,715.21932 0,0 -21.42857,-4.64285 8.75,22.85714" id="path3890" inkscape:connector-curvature="0" sodipodi:nodetypes="cccc"/>
    <path style="fill:none;stroke:#000000;stroke-width:7;stroke-linecap:round;stroke-linejoin:round;stroke-miterlimit:4;stroke-opacity:1;stroke-dasharray:none" d="m 429.10714,634.86218 17.67857,53.92857 -10.17857,6.25001 -9.10714,14.64285" id="path3892" inkscape:connector-curvature="0" sodipodi:nodetypes="cccc"/>
    <path style="fill:none;stroke:#000000;stroke-width:7;stroke-linecap:round;stroke-linejoin:round;stroke-miterlimit:4;stroke-opacity:1;stroke-dasharray:none" d="m 487.14286,692.71932 -38.75001,-3.92857 18.57144,28.75" id="path3894" inkscape:connector-curvature="0" sodipodi:nodetypes="ccc"/>
    <path style="fill:none;stroke:#000000;stroke-width:7;stroke-linecap:round;stroke-linejoin:round;stroke-miterlimit:4;stroke-opacity:1;stroke-dasharray:none" d="m 522.75394,492.73768 c 0,0 -41.15429,6.5076 -63.63961,9.09137 -22.48532,2.58377 -64.63542,-1.67571 -72.2259,5.55583 -7.59048,7.23154 -6.60753,12.91224 -7.07107,24.24367 -0.46354,11.33143 2.95681,28.59859 8.58629,41.92133 5.62948,13.32274 15.68286,26.90087 24.74874,36.36549 9.06588,9.46462 27.7792,20.70812 27.7792,20.70812 l 0.50507,-1.01015" id="path3896" inkscape:connector-curvature="0" sodipodi:nodetypes="czzzzzcc"/>
    <path style="fill:#d38d5f;fill-opacity:1;stroke:none;display:inline" d="m 259.10411,573.06389 -100.0051,-26.89212 22.19365,-33.48359 65.3628,29.89712" id="path2996-6" inkscape:connector-curvature="0" sodipodi:nodetypes="cccc"/>
  </g>
</svg>
