<?xml version="1.0" standalone="yes"?>
<svg xmlns="http://www.w3.org/2000/svg" width="64" height="64">
<path style="fill:#010101; stroke:none;" d="M0 0L0 64L64 64L64 0L0 0z"/>
<path style="fill:#5f3593; stroke:none;" d="M35 11L37 15L8 26C8.24457 37.4807 15.0966 46.9529 27 48L25 53L34 53L34 51L30 51L30 48C44.8045 47.6846 50.2652 34.6185 56 23L41 15L43 11L35 11z"/>
<path style="fill:#df7070; stroke:none;" d="M22 27L22 28C30.2343 24.8099 33.3801 17.384 43 20L42 26L43 26L45 22C51.1657 45.6902 15.2147 52.4404 13 28L11 28C11.9103 47.6369 39.8489 52.8681 47.044 34C50.4968 24.9454 43.5745 12.2753 33 18.7415C29.0692 21.1452 26.0335 24.6685 22 27z"/>
<path style="fill:#fb9e6e; stroke:none;" d="M13 28C14.1868 53.5404 53.5744 45.413 45 22C40.8411 26.4613 37.3146 22.7655 43 21C35.4347 14.8963 30.3938 23.403 24 26.6821C20.6326 28.4091 16.6654 27.9996 13 28z"/>
<path style="fill:#df7070; stroke:none;" d="M39 21L39 26L40 26L39 21z"/>
<path style="fill:#5f3593; stroke:none;" d="M40 21L40 26L42 26L42 21L40 21z"/>
<path style="fill:#fb9e6e; stroke:none;" d="M43 21L44 22L43 21z"/>
<path style="fill:#df7070; stroke:none;" d="M40.6667 23.3333L41.3333 23.6667L40.6667 23.3333z"/>
<path style="fill:#39b0e5; stroke:none;" d="M50 23L50 25L52 25L50 23z"/>
</svg>
