<svg version="1.1" id="Layer_1" xmlns="http://www.w3.org/2000/svg" xmlns:xlink="http://www.w3.org/1999/xlink" x="0px" y="0px"
	 width="100%" viewBox="0 0 2000 1500" enable-background="new 0 0 2000 1500" xml:space="preserve">
<path fill="#FFFFFF" opacity="1.000000" stroke="none" 
	d="
M1833.000000,1501.000000 
	C1222.000122,1501.000000 611.500366,1501.000000 1.000409,1501.000000 
	C1.000273,1001.000305 1.000273,501.000671 1.000136,1.000745 
	C667.666138,1.000497 1334.332275,1.000497 2000.998779,1.000248 
	C2000.999268,500.999298 2000.999268,1000.998596 2000.999634,1500.999023 
	C1945.166626,1501.000000 1889.333374,1501.000000 1833.000000,1501.000000 
M680.543701,795.870483 
	C691.659119,795.870483 702.774536,795.870483 714.266052,795.870483 
	C714.800354,791.905762 715.254089,788.539062 715.743347,784.908875 
	C714.502502,784.744873 713.720703,784.526917 712.948608,784.557251 
	C705.130310,784.863525 704.236084,784.076355 704.181152,776.418396 
	C704.115479,767.254822 704.109497,758.090881 704.080566,748.927063 
	C704.074036,746.875732 704.079590,744.824463 704.079590,742.773132 
	C704.525757,742.657776 704.971924,742.542419 705.418091,742.427063 
	C706.455811,743.815918 707.577271,745.150513 708.518372,746.601929 
	C718.927612,762.656067 729.286987,778.742615 739.740417,794.767883 
	C740.556396,796.018921 742.022705,797.812988 743.109070,797.760132 
	C749.179138,797.464661 755.225220,796.678284 761.397644,796.047607 
	C761.955872,772.763000 762.606445,750.115417 762.974121,727.463196 
	C763.080078,720.935974 763.862671,715.360840 771.957275,714.605164 
	C771.957275,710.847717 771.957275,707.588989 771.957275,704.461670 
	C759.263184,704.461670 746.858337,704.461670 734.261902,704.461670 
	C734.006836,708.039673 733.774048,711.305237 733.544983,714.518433 
	C743.231445,716.203674 743.224304,716.203735 743.340393,726.210327 
	C743.440857,734.873718 743.580933,743.536743 743.648010,752.200378 
	C743.658020,753.494812 743.363831,754.791626 743.210327,756.087341 
	C740.826721,754.506836 739.572632,752.797791 738.444824,751.009033 
	C729.306824,736.514893 720.134949,722.041382 711.128662,707.465759 
	C709.654785,705.080566 708.270264,704.021729 705.262390,704.146240 
	C697.453918,704.469360 689.623291,704.257385 681.801514,704.258789 
	C679.706055,704.259216 677.610596,704.258911 675.331909,704.258911 
	C675.150940,706.680542 675.204895,708.701172 674.809998,710.630005 
	C674.138367,713.909912 675.625305,714.973328 678.616638,715.598938 
	C686.343445,717.214966 687.083679,718.305847 686.812866,726.502747 
	C686.284729,742.487793 685.532166,758.467651 685.218994,774.456421 
	C685.103333,780.364136 683.483093,784.551941 677.064636,785.446777 
	C676.629883,789.005127 676.232605,792.256653 675.784302,795.925842 
	C677.362061,795.925842 678.480469,795.925842 680.543701,795.870483 
M390.357300,786.152344 
	C390.060638,789.043579 389.764008,791.934814 389.456299,794.933838 
	C404.109955,794.933838 418.190277,794.933838 432.596802,794.933838 
	C432.905304,791.279053 433.190521,787.900513 433.496155,784.279907 
	C432.011658,784.279907 431.207489,784.252075 430.405792,784.284424 
	C424.459686,784.524048 423.373718,783.627441 422.715637,777.821167 
	C422.565796,776.499207 422.409180,775.161621 422.449280,773.837097 
	C422.968353,756.690735 423.509277,739.544983 424.077850,722.400208 
	C424.205536,718.549438 425.611542,715.788452 429.862976,714.813538 
	C431.094604,714.531128 432.495483,712.691284 432.833496,711.322205 
	C433.402435,709.017639 433.183350,706.518555 433.275482,704.536438 
	C418.931519,704.536438 405.169067,704.536438 391.316833,704.536438 
	C391.074188,706.562378 391.089081,708.091125 390.685272,709.499817 
	C389.476410,713.717041 390.332520,715.671265 395.318176,715.302246 
	C396.772491,715.194580 399.687805,717.705139 399.776947,719.148743 
	C400.234650,726.558228 399.988892,734.011169 399.988892,741.995850 
	C389.869934,741.995850 380.163727,741.995850 371.023193,741.995850 
	C371.023193,735.831848 371.074097,730.180969 371.008545,724.531494 
	C370.945709,719.113770 372.393433,714.918213 378.968201,714.620300 
	C379.295654,710.954529 379.596069,707.591675 379.869965,704.525269 
	C365.830902,704.525269 352.408386,704.525269 338.541473,704.525269 
	C338.224945,708.268738 337.952850,711.486755 337.645447,715.122131 
	C339.207764,715.122131 340.173798,715.212524 341.117737,715.106506 
	C345.335571,714.632935 347.341187,716.419922 347.315643,720.723267 
	C347.203918,739.542908 347.299835,758.365906 346.908051,777.179077 
	C346.859619,779.503418 344.881866,782.618286 342.864899,783.914124 
	C336.981171,787.694031 336.277832,788.519653 337.476501,795.451294 
	C351.262878,795.451294 364.987762,795.451294 378.824005,795.451294 
	C379.247772,791.583923 379.617340,788.211182 380.007629,784.649231 
	C377.893005,784.649231 376.428345,784.682190 374.965668,784.642334 
	C372.065216,784.563354 370.089233,783.250610 370.049988,780.183716 
	C369.954803,772.742920 370.019043,765.300110 370.019043,757.073364 
	C380.183289,757.073364 389.917572,757.073364 400.152893,757.073364 
	C400.152893,761.894836 400.182434,766.853577 400.146637,771.811829 
	C400.075531,781.654358 399.589966,782.327881 390.357300,786.152344 
M917.398865,785.116272 
	C916.888367,788.313782 916.377869,791.511292 915.819946,795.005798 
	C930.590027,795.005798 944.670959,795.005798 959.030518,795.005798 
	C959.438782,791.448059 959.826233,788.072205 960.214722,784.686951 
	C950.042114,783.805176 948.974915,783.232056 949.125427,775.951904 
	C949.500916,757.797913 950.272095,739.652222 950.862305,721.502502 
	C950.982483,717.807312 952.792236,715.753052 956.405090,714.867310 
	C957.543945,714.588074 959.050781,713.340210 959.277649,712.294495 
	C959.851746,709.647949 959.795044,706.864624 959.973755,704.378113 
	C945.687134,704.378113 932.048157,704.378113 917.907654,704.378113 
	C917.520020,708.075012 917.169861,711.414856 916.785645,715.079651 
	C919.109985,715.079651 920.860535,714.576355 922.000854,715.195923 
	C923.774963,716.159973 926.368591,717.810913 926.460938,719.303894 
	C926.918640,726.700989 926.669495,734.141907 926.669495,741.976318 
	C916.494812,741.976318 906.781738,741.976318 896.762573,741.976318 
	C897.172180,734.730896 897.610107,728.085632 897.898499,721.433838 
	C898.050476,717.929138 899.784363,716.021545 903.057678,714.973145 
	C904.174561,714.615417 905.594055,713.366821 905.788391,712.322876 
	C906.287354,709.642639 906.177246,706.848938 906.289246,704.539795 
	C892.269958,704.539795 878.831726,704.539795 865.330994,704.539795 
	C865.052612,706.737305 865.035217,708.431213 864.598999,710.009338 
	C863.535583,713.856445 864.356995,715.682739 868.828247,715.142151 
	C872.785767,714.663635 874.008789,717.268372 874.002014,720.780823 
	C873.966675,739.112732 873.981140,757.444702 873.909180,775.776428 
	C873.891174,780.372192 872.036499,783.643433 867.253662,785.151062 
	C865.884827,785.582520 864.594910,787.562744 864.087219,789.102539 
	C863.437866,791.071899 863.617249,793.314392 863.439941,795.433228 
	C877.489746,795.433228 891.356140,795.433228 905.416931,795.433228 
	C905.824158,791.995544 906.202026,789.039429 906.494629,786.075012 
	C906.536804,785.647827 906.168457,785.180115 906.003723,784.765503 
	C896.641296,784.395142 896.320801,784.077820 896.240112,774.195862 
	C896.203430,769.696960 896.171265,765.188477 896.445984,760.703186 
	C896.515381,759.570801 897.707214,757.610718 898.491455,757.555054 
	C907.840332,756.890991 917.209778,756.515198 926.838745,756.051025 
	C926.838745,763.109924 927.036255,768.931335 926.787598,774.733521 
	C926.491150,781.652466 924.959106,783.235107 917.398865,785.116272 
M1672.225464,795.363159 
	C1682.697021,795.363159 1693.168701,795.363159 1704.017456,795.363159 
	C1704.467163,791.979614 1704.917358,788.591553 1705.395142,784.996582 
	C1703.045044,784.628479 1701.036377,784.760742 1699.523560,783.958130 
	C1697.830811,783.059753 1695.455933,781.399048 1695.345459,779.922913 
	C1694.880127,773.701294 1695.148438,767.424805 1695.148438,761.146667 
	C1698.300781,761.146667 1700.952515,761.146667 1703.791382,761.146667 
	C1704.570557,762.800476 1705.351074,764.439697 1706.117065,766.085632 
	C1709.412964,773.167969 1712.527832,780.341736 1716.053589,787.307617 
	C1718.874146,792.880371 1722.897095,797.380981 1729.868408,797.127686 
	C1736.160522,796.898926 1742.437744,796.255981 1748.609619,795.803894 
	C1750.264526,787.660461 1750.255737,787.675781 1743.463135,783.781250 
	C1742.461792,783.207153 1741.327759,782.590149 1740.697876,781.684875 
	C1734.780884,773.182129 1728.960449,764.612183 1723.144165,756.108704 
	C1726.272217,753.847412 1728.542236,752.427551 1730.556519,750.707947 
	C1736.166504,745.918396 1740.257568,740.137573 1741.018555,732.578857 
	C1742.573242,717.139282 1734.662964,706.471191 1718.145264,705.268799 
	C1700.296997,703.969604 1682.281250,704.974731 1663.815186,704.974731 
	C1663.419067,707.995483 1662.977783,711.361328 1662.533691,714.747437 
	C1672.628662,715.715454 1672.640991,715.715515 1672.601685,725.576538 
	C1672.539429,741.242004 1672.510132,756.907776 1672.366333,772.572510 
	C1672.283325,781.608887 1671.429199,782.685425 1662.872070,785.638489 
	C1662.517822,788.872253 1662.148682,792.242798 1661.729736,796.067322 
	C1665.363159,795.823242 1668.324097,795.624390 1672.225464,795.363159 
M1582.239868,713.725403 
	C1575.998291,719.346985 1571.504150,726.254456 1570.065552,734.429993 
	C1568.666992,742.377563 1567.807739,750.596558 1568.137817,758.637878 
	C1569.037720,780.560120 1582.485107,794.331848 1604.189697,796.600891 
	C1627.196411,799.006104 1646.215820,786.668945 1652.401733,765.161621 
	C1655.741455,753.549927 1655.751831,741.808044 1652.574707,730.176575 
	C1649.512207,718.965210 1642.981934,710.155151 1631.828979,706.291809 
	C1614.488281,700.284912 1597.792603,701.580872 1582.239868,713.725403 
M1149.924438,713.569641 
	C1143.628052,707.289856 1135.765625,704.563965 1127.166382,703.345337 
	C1102.876465,699.903320 1082.807373,712.196289 1076.628418,734.548157 
	C1073.552734,745.674255 1073.564331,756.946533 1076.340210,768.106689 
	C1078.707764,777.625366 1083.760620,785.504883 1092.235596,790.817261 
	C1109.129883,801.407227 1136.146606,797.478577 1149.693115,782.915100 
	C1165.393799,766.035645 1165.308350,728.347351 1149.924438,713.569641 
M1329.768311,736.500854 
	C1329.723877,748.665955 1329.736328,760.831726 1329.609497,772.995972 
	C1329.551392,778.578979 1328.726440,783.799622 1321.815063,785.124268 
	C1321.074585,785.266174 1320.056030,786.229309 1319.935913,786.941284 
	C1319.427246,789.955505 1319.209229,793.018799 1318.993286,795.048279 
	C1329.613159,795.048279 1339.588623,794.930237 1349.560181,795.078186 
	C1361.887329,795.261047 1374.213623,795.589172 1386.534302,796.025696 
	C1389.644775,796.135925 1391.101440,795.076965 1391.512207,791.982056 
	C1392.541138,784.229614 1393.869019,776.514221 1394.730957,768.745605 
	C1394.843262,767.733032 1392.935913,765.542725 1391.939087,765.527466 
	C1387.827515,765.464539 1383.706299,766.029602 1379.573120,766.365112 
	C1378.984253,768.899780 1378.987427,771.485046 1377.815674,773.320129 
	C1376.050659,776.084534 1373.875366,779.624817 1371.133301,780.492004 
	C1366.676758,781.901489 1361.623291,781.593994 1356.816895,781.661194 
	C1354.029541,781.700256 1352.039307,780.170349 1352.021484,777.050476 
	C1351.983887,770.439392 1352.010010,763.828003 1352.010010,756.591553 
	C1361.809937,756.591553 1371.032837,756.591553 1380.349365,756.591553 
	C1380.941650,752.709473 1381.375977,749.422546 1381.958496,746.162109 
	C1382.617188,742.474854 1381.562866,741.225586 1377.491333,741.440674 
	C1369.404053,741.867737 1361.278320,741.566956 1353.404175,741.566956 
	C1353.404175,736.466553 1353.190674,731.337158 1353.454346,726.232361 
	C1353.848999,718.588135 1353.994751,718.493286 1361.579834,718.726501 
	C1376.033081,719.170898 1375.708740,719.272400 1376.290283,732.245667 
	C1381.184326,731.955200 1386.067383,731.665405 1390.815308,731.383606 
	C1391.940063,722.851868 1392.937744,714.939880 1394.046631,707.043518 
	C1394.490967,703.878784 1393.306396,703.062378 1390.172852,703.132507 
	C1369.036377,703.605774 1347.895386,703.886108 1326.755859,704.221802 
	C1325.005371,704.249634 1323.254150,704.225525 1321.446045,704.225525 
	C1321.141724,706.746643 1321.135132,708.614502 1320.661621,710.355286 
	C1319.623535,714.171570 1320.806519,715.687195 1324.802856,715.120422 
	C1328.027710,714.663147 1329.417969,716.630737 1329.517700,719.515442 
	C1329.701660,724.840576 1329.697144,730.172180 1329.768311,736.500854 
M465.493713,704.629578 
	C458.365631,704.629578 451.237518,704.629578 443.651367,704.629578 
	C443.276245,707.223511 442.678162,709.974487 442.604462,712.739380 
	C442.583252,713.536255 443.970673,714.938599 444.884277,715.101990 
	C451.727051,716.326172 451.897003,716.343872 451.901672,723.418457 
	C451.912445,739.739807 451.887756,756.061401 451.784973,772.382324 
	C451.729523,781.184082 450.462830,782.856140 442.070282,785.919189 
	C441.728455,789.194031 441.375549,792.574951 441.020813,795.973633 
	C463.991516,795.973633 486.432861,795.897644 508.872650,796.049438 
	C512.546997,796.074280 513.397156,794.226074 513.794983,791.283691 
	C514.753113,784.198242 515.659973,777.101624 516.847290,770.053162 
	C517.512878,766.102112 516.220215,764.808472 512.342163,765.503845 
	C510.224640,765.883606 508.020172,766.043030 505.873566,765.934143 
	C502.682098,765.772339 501.180756,766.720642 500.766205,770.241943 
	C500.234741,774.756653 498.780334,779.551025 493.585571,780.592285 
	C488.751526,781.561218 483.656067,781.802795 478.739044,781.458984 
	C477.080963,781.343079 474.423462,778.551880 474.277588,776.811218 
	C473.740265,770.398499 474.064209,763.913574 474.064209,756.799683 
	C483.738586,756.799683 492.961639,756.799683 502.449188,756.799683 
	C503.031921,752.834412 503.415070,749.394836 504.067139,746.007019 
	C504.829163,742.047974 503.346924,741.275269 499.505493,741.461853 
	C491.425385,741.854431 483.312897,741.581055 474.777557,741.581055 
	C475.144165,735.084412 475.428375,728.631226 475.948975,722.197205 
	C476.037018,721.109070 477.171661,719.182922 477.773712,719.201843 
	C483.689850,719.388123 489.914459,718.898621 495.405060,720.639648 
	C499.929871,722.074402 497.513611,727.673157 498.098602,731.444946 
	C498.119690,731.580994 498.270996,731.696838 498.660583,732.235107 
	C503.279266,731.958374 508.166595,731.665527 512.973633,731.377502 
	C514.094788,722.715271 515.099731,714.645447 516.199585,706.588623 
	C516.710205,702.848145 514.479675,703.113892 511.897919,703.205994 
	C496.765625,703.745850 481.629303,704.172791 465.493713,704.629578 
M1462.487183,762.687561 
	C1461.619385,765.292664 1460.743408,767.895081 1459.885010,770.503296 
	C1457.119263,778.908936 1450.983032,782.265259 1442.367554,780.103943 
	C1436.458130,778.621460 1432.973755,774.461060 1431.034790,769.098145 
	C1426.486328,756.517456 1426.244995,743.594666 1429.722534,730.799072 
	C1432.208862,721.651245 1439.906616,717.572205 1449.593750,719.238037 
	C1455.585693,720.268433 1458.320068,723.175171 1458.738525,729.273743 
	C1458.927979,732.036560 1458.770630,734.823242 1458.770630,737.857422 
	C1464.656494,737.454956 1470.066650,737.085022 1475.188110,736.734802 
	C1476.516968,727.696167 1477.755615,719.153564 1479.038574,710.617554 
	C1479.409180,708.151550 1479.065918,706.302124 1476.058716,706.012024 
	C1466.137695,705.054688 1456.205688,703.101135 1446.306030,703.262329 
	C1424.632690,703.615051 1408.163208,715.950500 1403.678711,735.706116 
	C1401.663452,744.584106 1401.331665,754.338989 1402.604370,763.362000 
	C1405.003906,780.374329 1414.923950,791.924805 1432.321167,795.494507 
	C1446.215820,798.345581 1459.831787,795.792908 1473.156982,791.700989 
	C1474.490967,791.291321 1476.056030,789.227844 1476.213379,787.789551 
	C1477.149414,779.239319 1477.702515,770.647095 1478.421265,761.603027 
	C1473.219360,761.918396 1468.266235,762.218750 1462.487183,762.687561 
M996.015930,724.531006 
	C988.405090,738.791321 987.554199,753.780884 991.847229,769.061340 
	C995.888489,783.445374 1005.494446,792.469482 1020.174927,795.457458 
	C1034.245117,798.321350 1047.983154,795.767395 1061.462769,791.619751 
	C1062.619019,791.263916 1064.072876,789.646240 1064.189331,788.493652 
	C1065.082031,779.653198 1065.677612,770.782715 1066.385742,761.662170 
	C1061.844971,761.882507 1057.705566,762.197449 1053.563110,762.246155 
	C1050.561279,762.281555 1049.383179,763.388611 1048.810303,766.531738 
	C1047.616089,773.083618 1045.373413,779.156433 1037.416626,780.464844 
	C1028.741943,781.891296 1021.498352,777.269653 1018.349792,767.377258 
	C1014.635925,755.708801 1014.545227,743.713684 1017.301514,731.872314 
	C1019.588928,722.045288 1027.795410,717.368286 1037.910767,719.299683 
	C1043.659058,720.397217 1046.286987,723.196533 1046.734619,729.070618 
	C1046.946655,731.853760 1046.770996,734.666443 1046.770996,737.819336 
	C1052.525757,737.453003 1057.930664,737.108948 1063.224976,736.771973 
	C1064.540527,727.741943 1065.781860,719.050232 1067.086426,710.368042 
	C1067.482910,707.729553 1066.666870,706.318787 1063.832153,705.955627 
	C1057.566284,705.152771 1051.355957,703.718872 1045.072021,703.289062 
	C1025.442749,701.946411 1007.893921,705.905151 996.015930,724.531006 
M806.760376,769.424377 
	C802.292358,757.180420 801.849609,744.660156 804.920471,732.121338 
	C807.465027,721.732117 815.854614,717.076904 826.262207,719.470825 
	C831.338501,720.638428 834.079712,723.608643 834.188416,728.850647 
	C834.248962,731.773315 834.199341,734.698242 834.199341,737.866394 
	C840.231079,737.457336 845.623047,737.091675 850.745544,736.744263 
	C852.151489,727.562744 853.627563,718.876404 854.654175,710.137268 
	C854.799438,708.901062 852.889038,706.349731 851.702942,706.199463 
	C841.662781,704.927002 831.548950,703.082397 821.497131,703.295044 
	C800.435181,703.740662 784.401611,715.773193 779.496765,734.620117 
	C777.562927,742.050842 776.889465,750.130493 777.369751,757.806519 
	C778.648743,778.249207 789.712952,791.697449 807.775085,795.455505 
	C821.830017,798.379761 835.581055,795.752014 849.074890,791.645752 
	C850.167114,791.313354 851.657227,790.008301 851.752869,789.036133 
	C852.639832,780.021423 853.261108,770.980591 853.952637,762.035583 
	C850.859924,762.035583 848.216003,761.946838 845.580688,762.059937 
	C842.808044,762.178833 840.043701,762.490662 837.455811,762.703369 
	C836.654907,765.747559 836.140991,768.362488 835.279724,770.857483 
	C831.983765,780.405640 821.823181,783.937744 813.628540,778.047546 
	C810.929382,776.107300 809.199402,772.818848 806.760376,769.424377 
M271.771881,719.760620 
	C274.574066,719.174622 277.376282,718.588623 280.788818,717.875000 
	C280.788818,720.306580 280.788879,721.768860 280.788818,723.231140 
	C280.788422,738.886230 280.811310,754.541443 280.779816,770.196472 
	C280.756073,782.001099 279.575104,783.307678 267.698425,785.141846 
	C267.433655,785.182678 267.220398,785.557007 266.747314,785.993164 
	C266.454407,789.014221 266.139008,792.267334 265.825867,795.497253 
	C283.137909,795.497253 300.006500,795.497253 317.276093,795.497253 
	C317.642517,791.587524 317.990509,787.874207 318.344086,784.101318 
	C316.020050,784.101318 314.359741,784.076782 312.700348,784.105591 
	C305.259338,784.234863 303.146729,782.272705 303.054718,774.825012 
	C302.984772,769.163879 303.118530,763.500488 303.124329,757.838135 
	C303.137817,744.734619 303.128632,731.631165 303.128632,718.559509 
	C319.706848,717.087158 315.716003,729.871826 318.623627,737.813293 
	C323.067108,737.450623 327.452728,737.092712 331.084686,736.796265 
	C331.084686,726.359131 331.203766,716.393066 330.913544,706.438965 
	C330.882050,705.359375 328.490387,703.450073 327.181610,703.439880 
	C303.923340,703.257141 280.662964,703.266418 257.404266,703.418335 
	C256.031586,703.427246 253.502197,704.961426 253.479462,705.836914 
	C253.205124,716.406128 253.301788,726.984985 253.301788,737.750549 
	C257.067596,737.443481 261.475586,737.084045 264.526611,736.835327 
	C266.909271,730.719849 268.968903,725.433594 271.771881,719.760620 
M1512.964478,736.500916 
	C1512.964233,747.824585 1512.984619,759.148254 1512.957886,770.471863 
	C1512.930664,781.995911 1511.439575,783.668030 1500.141724,785.091980 
	C1499.850708,785.128662 1499.587036,785.383362 1499.060303,785.674988 
	C1498.717407,788.902100 1498.359375,792.270691 1498.016724,795.495972 
	C1515.419312,795.495972 1532.294922,795.495972 1549.480347,795.495972 
	C1549.869263,791.643372 1550.229004,788.080811 1550.630859,784.100403 
	C1548.429688,784.100403 1546.650757,784.075439 1544.872559,784.104797 
	C1537.482056,784.226685 1535.191406,782.297913 1535.265991,774.772644 
	C1535.445679,756.624390 1535.917847,738.478943 1536.301514,720.332947 
	C1536.314331,719.721008 1536.643921,719.115784 1536.845703,718.440918 
	C1552.114990,717.267090 1547.812500,730.235229 1550.861816,737.813660 
	C1555.360352,737.455872 1559.640015,737.115479 1563.278198,736.826050 
	C1563.278198,726.444214 1563.325073,716.321838 1563.250488,706.200378 
	C1563.227295,703.058533 1561.056274,703.176331 1558.658325,703.364075 
	C1551.532593,703.921997 1544.386353,704.726135 1537.257935,704.638428 
	C1521.297119,704.442200 1505.343384,703.699036 1489.382568,703.409119 
	C1488.129272,703.386353 1485.763306,705.127625 1485.738647,706.095642 
	C1485.472290,716.513855 1485.572510,726.941528 1485.572510,737.695374 
	C1489.101562,737.432983 1493.506592,737.105469 1497.790527,736.786865 
	C1498.813110,732.149902 1499.327271,727.624146 1500.847656,723.466370 
	C1502.858765,717.967041 1508.010986,718.522888 1512.964478,718.269714 
	C1512.964478,724.205139 1512.964478,729.853210 1512.964478,736.500916 
M602.834167,732.304443 
	C607.449036,732.044495 612.063904,731.784485 616.607605,731.528564 
	C617.490356,723.084534 618.261414,715.138428 619.180664,707.209473 
	C619.525696,704.232788 618.803711,703.008057 615.462769,703.133667 
	C598.826721,703.759094 582.182983,704.190002 565.540039,704.613770 
	C560.441467,704.743591 555.336792,704.633911 549.972839,704.633911 
	C549.588196,708.057373 549.213135,711.395020 548.817993,714.911682 
	C553.418030,715.380615 558.222900,713.793579 558.163452,720.350952 
	C557.995911,738.845825 558.073120,757.342712 558.003052,775.838684 
	C557.986084,780.319702 555.763916,783.168701 551.566101,784.970703 
	C550.055542,785.619080 548.723206,787.676819 548.195251,789.367920 
	C547.537720,791.473938 547.796570,793.866150 547.686768,795.686646 
	C563.649902,795.686646 579.217529,795.686646 594.982910,795.686646 
	C595.588196,791.577576 596.179016,788.149353 596.575012,784.698792 
	C596.908569,781.791687 595.412781,780.789978 592.630493,781.302063 
	C590.998169,781.602478 589.338684,781.764343 587.686829,781.946838 
	C583.180237,782.444763 580.611877,780.548828 580.545715,775.888672 
	C580.468750,770.464050 580.527710,765.037476 580.527710,759.067566 
	C590.182068,759.067566 598.944336,759.067566 607.709045,759.067566 
	C607.907837,757.522156 608.014282,756.534973 608.164124,755.554443 
	C610.022583,743.394958 610.032471,743.520874 597.492371,744.350220 
	C592.142395,744.703979 586.749512,744.409363 582.122009,744.409363 
	C582.122009,736.679626 581.941223,729.852478 582.268005,723.049744 
	C582.336975,721.614136 584.144836,719.215271 585.359741,719.076050 
	C589.121826,718.644775 593.115540,718.545654 596.751831,719.424500 
	C598.549377,719.858826 600.309875,722.511353 601.090515,724.543213 
	C601.981018,726.860962 601.761780,729.605103 602.834167,732.304443 
M1262.503540,704.723572 
	C1256.901123,704.723572 1251.298706,704.723572 1245.360962,704.723572 
	C1245.100830,708.409241 1244.873047,711.635925 1244.640137,714.936584 
	C1249.004272,715.498596 1254.220581,713.522888 1254.194458,720.403625 
	C1254.123535,739.045105 1254.176636,757.687012 1254.119629,776.328552 
	C1254.106445,780.618958 1252.034302,783.485474 1247.862183,784.942200 
	C1246.732178,785.336731 1245.326538,786.499512 1245.077026,787.553406 
	C1244.441162,790.239807 1244.386475,793.063782 1244.053589,796.271729 
	C1251.212158,795.863037 1257.984375,795.126953 1264.752441,795.162659 
	C1278.896362,795.237305 1293.039185,795.686035 1307.180298,796.062134 
	C1309.936035,796.135376 1312.044312,795.965881 1312.376099,792.427856 
	C1313.338745,782.160889 1314.577759,771.919128 1315.447144,761.645325 
	C1315.524780,760.726807 1313.682617,758.766785 1312.777100,758.794006 
	C1308.518433,758.921631 1304.275513,759.574341 1300.560669,759.981201 
	C1299.259888,765.614929 1298.526489,770.763733 1296.834717,775.575562 
	C1295.061401,780.619385 1287.989624,783.050476 1281.414673,781.710571 
	C1275.608276,780.527161 1276.820190,775.916199 1276.886108,772.149658 
	C1277.156616,756.674561 1277.567627,741.201111 1278.063232,725.731323 
	C1278.295044,718.497803 1279.401001,717.517151 1286.597778,715.793457 
	C1287.856445,715.492004 1289.518799,714.173584 1289.800537,713.030396 
	C1290.492676,710.222900 1290.488647,707.243835 1290.727661,704.723694 
	C1281.406738,704.723694 1272.455322,704.723694 1262.503540,704.723572 
M1172.258423,784.966370 
	C1167.486450,787.777283 1169.984741,792.275269 1169.189331,795.091187 
	C1181.637939,795.091187 1193.600830,794.972229 1205.560059,795.130188 
	C1214.546021,795.248840 1223.531006,795.645752 1232.508545,796.080933 
	C1235.657227,796.233582 1236.955566,795.145203 1237.222290,791.922424 
	C1237.908081,783.634583 1238.938843,775.375854 1239.762329,767.098572 
	C1240.032227,764.386108 1240.089233,761.652466 1240.275269,758.368896 
	C1234.561890,758.986023 1229.697144,759.511475 1224.842773,760.035828 
	C1224.469482,763.075012 1224.295898,765.576050 1223.824585,768.019714 
	C1223.354492,770.457581 1222.827271,772.935852 1221.899292,775.223755 
	C1219.778931,780.451843 1212.894287,783.153809 1206.150879,781.706970 
	C1200.392456,780.471436 1201.594116,775.821655 1201.664062,772.081116 
	C1201.956177,756.439575 1202.432251,740.800537 1202.970825,725.165039 
	C1203.200562,718.495911 1204.418457,717.094299 1211.015869,716.002136 
	C1213.624390,715.570435 1214.875854,714.622986 1214.914795,711.936157 
	C1214.952026,709.364502 1215.254761,706.796753 1215.410278,704.648865 
	C1200.127319,704.648865 1185.256104,704.648865 1170.326050,704.648865 
	C1170.081665,706.957458 1170.094116,708.648499 1169.695801,710.236389 
	C1168.813599,713.753540 1169.343018,715.693359 1173.662354,715.135925 
	C1177.468262,714.644775 1179.058350,716.811829 1179.051147,720.514038 
	C1179.015137,738.992737 1179.061035,757.471680 1179.008301,775.950378 
	C1178.996338,780.146240 1177.225464,783.332092 1172.258423,784.966370 
M657.120544,781.975586 
	C657.449646,761.503967 657.650574,741.028076 658.324524,720.567810 
	C658.385742,718.710449 661.196167,716.023560 663.250671,715.377075 
	C666.025146,714.503967 667.153015,713.508789 667.016724,710.686890 
	C666.914978,708.579895 667.166260,706.455872 667.251953,704.528320 
	C653.010437,704.528320 639.118408,704.528320 624.965088,704.528320 
	C624.564209,708.263184 624.220581,711.464722 623.850342,714.914062 
	C625.374878,715.033020 626.175720,715.149780 626.976501,715.149414 
	C633.294067,715.146667 634.102051,715.851562 634.109802,722.368042 
	C634.130615,739.867310 634.022400,757.366821 634.040649,774.866089 
	C634.045898,779.883118 632.449768,783.478638 627.220886,785.148315 
	C625.859741,785.582947 624.636841,787.656921 624.122131,789.230347 
	C623.480957,791.190247 623.639404,793.411865 623.454651,795.496582 
	C637.757385,795.496582 651.838196,795.496582 666.476196,795.496582 
	C666.853455,791.748657 667.206421,788.241516 667.480042,785.522705 
	C663.601746,784.461243 660.567749,783.630798 657.120544,781.975586 
z"/>
<path fill="#0C3F67" opacity="1.000000" stroke="none" 
	d="
M680.071289,795.898193 
	C678.480469,795.925842 677.362061,795.925842 675.784302,795.925842 
	C676.232605,792.256653 676.629883,789.005127 677.064636,785.446777 
	C683.483093,784.551941 685.103333,780.364136 685.218994,774.456421 
	C685.532166,758.467651 686.284729,742.487793 686.812866,726.502747 
	C687.083679,718.305847 686.343445,717.214966 678.616638,715.598938 
	C675.625305,714.973328 674.138367,713.909912 674.809998,710.630005 
	C675.204895,708.701172 675.150940,706.680542 675.331909,704.258911 
	C677.610596,704.258911 679.706055,704.259216 681.801514,704.258789 
	C689.623291,704.257385 697.453918,704.469360 705.262390,704.146240 
	C708.270264,704.021729 709.654785,705.080566 711.128662,707.465759 
	C720.134949,722.041382 729.306824,736.514893 738.444824,751.009033 
	C739.572632,752.797791 740.826721,754.506836 743.210327,756.087341 
	C743.363831,754.791626 743.658020,753.494812 743.648010,752.200378 
	C743.580933,743.536743 743.440857,734.873718 743.340393,726.210327 
	C743.224304,716.203735 743.231445,716.203674 733.544983,714.518433 
	C733.774048,711.305237 734.006836,708.039673 734.261902,704.461670 
	C746.858337,704.461670 759.263184,704.461670 771.957275,704.461670 
	C771.957275,707.588989 771.957275,710.847717 771.957275,714.605164 
	C763.862671,715.360840 763.080078,720.935974 762.974121,727.463196 
	C762.606445,750.115417 761.955872,772.763000 761.397644,796.047607 
	C755.225220,796.678284 749.179138,797.464661 743.109070,797.760132 
	C742.022705,797.812988 740.556396,796.018921 739.740417,794.767883 
	C729.286987,778.742615 718.927612,762.656067 708.518372,746.601929 
	C707.577271,745.150513 706.455811,743.815918 705.418091,742.427063 
	C704.971924,742.542419 704.525757,742.657776 704.079590,742.773132 
	C704.079590,744.824463 704.074036,746.875732 704.080566,748.927063 
	C704.109497,758.090881 704.115479,767.254822 704.181152,776.418396 
	C704.236084,784.076355 705.130310,784.863525 712.948608,784.557251 
	C713.720703,784.526917 714.502502,784.744873 715.743347,784.908875 
	C715.254089,788.539062 714.800354,791.905762 714.266052,795.870483 
	C702.774536,795.870483 691.659119,795.870483 680.071289,795.898193 
z"/>
<path fill="#0D4067" opacity="1.000000" stroke="none" 
	d="
M390.504944,785.779968 
	C399.589966,782.327881 400.075531,781.654358 400.146637,771.811829 
	C400.182434,766.853577 400.152893,761.894836 400.152893,757.073364 
	C389.917572,757.073364 380.183289,757.073364 370.019043,757.073364 
	C370.019043,765.300110 369.954803,772.742920 370.049988,780.183716 
	C370.089233,783.250610 372.065216,784.563354 374.965668,784.642334 
	C376.428345,784.682190 377.893005,784.649231 380.007629,784.649231 
	C379.617340,788.211182 379.247772,791.583923 378.824005,795.451294 
	C364.987762,795.451294 351.262878,795.451294 337.476501,795.451294 
	C336.277832,788.519653 336.981171,787.694031 342.864899,783.914124 
	C344.881866,782.618286 346.859619,779.503418 346.908051,777.179077 
	C347.299835,758.365906 347.203918,739.542908 347.315643,720.723267 
	C347.341187,716.419922 345.335571,714.632935 341.117737,715.106506 
	C340.173798,715.212524 339.207764,715.122131 337.645447,715.122131 
	C337.952850,711.486755 338.224945,708.268738 338.541473,704.525269 
	C352.408386,704.525269 365.830902,704.525269 379.869965,704.525269 
	C379.596069,707.591675 379.295654,710.954529 378.968201,714.620300 
	C372.393433,714.918213 370.945709,719.113770 371.008545,724.531494 
	C371.074097,730.180969 371.023193,735.831848 371.023193,741.995850 
	C380.163727,741.995850 389.869934,741.995850 399.988892,741.995850 
	C399.988892,734.011169 400.234650,726.558228 399.776947,719.148743 
	C399.687805,717.705139 396.772491,715.194580 395.318176,715.302246 
	C390.332520,715.671265 389.476410,713.717041 390.685272,709.499817 
	C391.089081,708.091125 391.074188,706.562378 391.316833,704.536438 
	C405.169067,704.536438 418.931519,704.536438 433.275482,704.536438 
	C433.183350,706.518555 433.402435,709.017639 432.833496,711.322205 
	C432.495483,712.691284 431.094604,714.531128 429.862976,714.813538 
	C425.611542,715.788452 424.205536,718.549438 424.077850,722.400208 
	C423.509277,739.544983 422.968353,756.690735 422.449280,773.837097 
	C422.409180,775.161621 422.565796,776.499207 422.715637,777.821167 
	C423.373718,783.627441 424.459686,784.524048 430.405792,784.284424 
	C431.207489,784.252075 432.011658,784.279907 433.496155,784.279907 
	C433.190521,787.900513 432.905304,791.279053 432.596802,794.933838 
	C418.190277,794.933838 404.109955,794.933838 389.456299,794.933838 
	C389.764008,791.934814 390.060638,789.043579 390.504944,785.779968 
z"/>
<path fill="#0B3F66" opacity="1.000000" stroke="none" 
	d="
M917.777649,784.976501 
	C924.959106,783.235107 926.491150,781.652466 926.787598,774.733521 
	C927.036255,768.931335 926.838745,763.109924 926.838745,756.051025 
	C917.209778,756.515198 907.840332,756.890991 898.491455,757.555054 
	C897.707214,757.610718 896.515381,759.570801 896.445984,760.703186 
	C896.171265,765.188477 896.203430,769.696960 896.240112,774.195862 
	C896.320801,784.077820 896.641296,784.395142 906.003723,784.765503 
	C906.168457,785.180115 906.536804,785.647827 906.494629,786.075012 
	C906.202026,789.039429 905.824158,791.995544 905.416931,795.433228 
	C891.356140,795.433228 877.489746,795.433228 863.439941,795.433228 
	C863.617249,793.314392 863.437866,791.071899 864.087219,789.102539 
	C864.594910,787.562744 865.884827,785.582520 867.253662,785.151062 
	C872.036499,783.643433 873.891174,780.372192 873.909180,775.776428 
	C873.981140,757.444702 873.966675,739.112732 874.002014,720.780823 
	C874.008789,717.268372 872.785767,714.663635 868.828247,715.142151 
	C864.356995,715.682739 863.535583,713.856445 864.598999,710.009338 
	C865.035217,708.431213 865.052612,706.737305 865.330994,704.539795 
	C878.831726,704.539795 892.269958,704.539795 906.289246,704.539795 
	C906.177246,706.848938 906.287354,709.642639 905.788391,712.322876 
	C905.594055,713.366821 904.174561,714.615417 903.057678,714.973145 
	C899.784363,716.021545 898.050476,717.929138 897.898499,721.433838 
	C897.610107,728.085632 897.172180,734.730896 896.762573,741.976318 
	C906.781738,741.976318 916.494812,741.976318 926.669495,741.976318 
	C926.669495,734.141907 926.918640,726.700989 926.460938,719.303894 
	C926.368591,717.810913 923.774963,716.159973 922.000854,715.195923 
	C920.860535,714.576355 919.109985,715.079651 916.785645,715.079651 
	C917.169861,711.414856 917.520020,708.075012 917.907654,704.378113 
	C932.048157,704.378113 945.687134,704.378113 959.973755,704.378113 
	C959.795044,706.864624 959.851746,709.647949 959.277649,712.294495 
	C959.050781,713.340210 957.543945,714.588074 956.405090,714.867310 
	C952.792236,715.753052 950.982483,717.807312 950.862305,721.502502 
	C950.272095,739.652222 949.500916,757.797913 949.125427,775.951904 
	C948.974915,783.232056 950.042114,783.805176 960.214722,784.686951 
	C959.826233,788.072205 959.438782,791.448059 959.030518,795.005798 
	C944.670959,795.005798 930.590027,795.005798 915.819946,795.005798 
	C916.377869,791.511292 916.888367,788.313782 917.777649,784.976501 
z"/>
<path fill="#0C3F67" opacity="1.000000" stroke="none" 
	d="
M1671.755249,795.394287 
	C1668.324097,795.624390 1665.363159,795.823242 1661.729736,796.067322 
	C1662.148682,792.242798 1662.517822,788.872253 1662.872070,785.638489 
	C1671.429199,782.685425 1672.283325,781.608887 1672.366333,772.572510 
	C1672.510132,756.907776 1672.539429,741.242004 1672.601685,725.576538 
	C1672.640991,715.715515 1672.628662,715.715454 1662.533691,714.747437 
	C1662.977783,711.361328 1663.419067,707.995483 1663.815186,704.974731 
	C1682.281250,704.974731 1700.296997,703.969604 1718.145264,705.268799 
	C1734.662964,706.471191 1742.573242,717.139282 1741.018555,732.578857 
	C1740.257568,740.137573 1736.166504,745.918396 1730.556519,750.707947 
	C1728.542236,752.427551 1726.272217,753.847412 1723.144165,756.108704 
	C1728.960449,764.612183 1734.780884,773.182129 1740.697876,781.684875 
	C1741.327759,782.590149 1742.461792,783.207153 1743.463135,783.781250 
	C1750.255737,787.675781 1750.264526,787.660461 1748.609619,795.803894 
	C1742.437744,796.255981 1736.160522,796.898926 1729.868408,797.127686 
	C1722.897095,797.380981 1718.874146,792.880371 1716.053589,787.307617 
	C1712.527832,780.341736 1709.412964,773.167969 1706.117065,766.085632 
	C1705.351074,764.439697 1704.570557,762.800476 1703.791382,761.146667 
	C1700.952515,761.146667 1698.300781,761.146667 1695.148438,761.146667 
	C1695.148438,767.424805 1694.880127,773.701294 1695.345459,779.922913 
	C1695.455933,781.399048 1697.830811,783.059753 1699.523560,783.958130 
	C1701.036377,784.760742 1703.045044,784.628479 1705.395142,784.996582 
	C1704.917358,788.591553 1704.467163,791.979614 1704.017456,795.363159 
	C1693.168701,795.363159 1682.697021,795.363159 1671.755249,795.394287 
M1701.212524,747.131592 
	C1704.898560,748.045593 1708.237305,748.010803 1711.458984,745.296570 
	C1716.997070,740.630859 1719.345337,731.842896 1716.312988,725.501160 
	C1713.983887,720.630676 1705.186279,716.769043 1699.000854,718.135620 
	C1698.044678,718.346863 1696.703735,719.707642 1696.639404,720.614624 
	C1696.033813,729.168335 1695.666748,737.738892 1695.222046,746.479980 
	C1697.430664,746.729431 1698.895996,746.894958 1701.212524,747.131592 
z"/>
<path fill="#0C3F67" opacity="1.000000" stroke="none" 
	d="
M1582.503418,713.487854 
	C1597.792603,701.580872 1614.488281,700.284912 1631.828979,706.291809 
	C1642.981934,710.155151 1649.512207,718.965210 1652.574707,730.176575 
	C1655.751831,741.808044 1655.741455,753.549927 1652.401733,765.161621 
	C1646.215820,786.668945 1627.196411,799.006104 1604.189697,796.600891 
	C1582.485107,794.331848 1569.037720,780.560120 1568.137817,758.637878 
	C1567.807739,750.596558 1568.666992,742.377563 1570.065552,734.429993 
	C1571.504150,726.254456 1575.998291,719.346985 1582.503418,713.487854 
M1598.728638,724.305176 
	C1590.612915,741.595398 1591.866577,758.823547 1599.780273,775.661987 
	C1602.351196,781.132507 1607.887451,782.714111 1613.865845,782.063843 
	C1620.055054,781.390564 1624.151855,777.682007 1625.805054,772.118408 
	C1630.198120,757.334534 1629.990601,742.410706 1623.913818,728.169250 
	C1619.423218,717.645020 1607.713867,715.902344 1598.728638,724.305176 
z"/>
<path fill="#0C3F67" opacity="1.000000" stroke="none" 
	d="
M1150.180298,713.818604 
	C1165.308350,728.347351 1165.393799,766.035645 1149.693115,782.915100 
	C1136.146606,797.478577 1109.129883,801.407227 1092.235596,790.817261 
	C1083.760620,785.504883 1078.707764,777.625366 1076.340210,768.106689 
	C1073.564331,756.946533 1073.552734,745.674255 1076.628418,734.548157 
	C1082.807373,712.196289 1102.876465,699.903320 1127.166382,703.345337 
	C1135.765625,704.563965 1143.628052,707.289856 1150.180298,713.818604 
M1120.671265,719.454651 
	C1110.755249,718.111145 1104.494995,721.660767 1102.228516,731.050964 
	C1099.004395,744.407288 1099.481079,757.849426 1103.998169,770.889221 
	C1106.828369,779.059204 1112.124146,782.499939 1119.689209,782.120056 
	C1126.431641,781.781372 1131.528320,777.711121 1133.418823,769.728210 
	C1136.583618,756.363525 1136.087769,742.953430 1131.612915,729.900452 
	C1129.945923,725.038269 1126.748901,721.190063 1120.671265,719.454651 
z"/>
<path fill="#0C3F67" opacity="1.000000" stroke="none" 
	d="
M1329.769775,736.000977 
	C1329.697144,730.172180 1329.701660,724.840576 1329.517700,719.515442 
	C1329.417969,716.630737 1328.027710,714.663147 1324.802856,715.120422 
	C1320.806519,715.687195 1319.623535,714.171570 1320.661621,710.355286 
	C1321.135132,708.614502 1321.141724,706.746643 1321.446045,704.225525 
	C1323.254150,704.225525 1325.005371,704.249634 1326.755859,704.221802 
	C1347.895386,703.886108 1369.036377,703.605774 1390.172852,703.132507 
	C1393.306396,703.062378 1394.490967,703.878784 1394.046631,707.043518 
	C1392.937744,714.939880 1391.940063,722.851868 1390.815308,731.383606 
	C1386.067383,731.665405 1381.184326,731.955200 1376.290283,732.245667 
	C1375.708740,719.272400 1376.033081,719.170898 1361.579834,718.726501 
	C1353.994751,718.493286 1353.848999,718.588135 1353.454346,726.232361 
	C1353.190674,731.337158 1353.404175,736.466553 1353.404175,741.566956 
	C1361.278320,741.566956 1369.404053,741.867737 1377.491333,741.440674 
	C1381.562866,741.225586 1382.617188,742.474854 1381.958496,746.162109 
	C1381.375977,749.422546 1380.941650,752.709473 1380.349365,756.591553 
	C1371.032837,756.591553 1361.809937,756.591553 1352.010010,756.591553 
	C1352.010010,763.828003 1351.983887,770.439392 1352.021484,777.050476 
	C1352.039307,780.170349 1354.029541,781.700256 1356.816895,781.661194 
	C1361.623291,781.593994 1366.676758,781.901489 1371.133301,780.492004 
	C1373.875366,779.624817 1376.050659,776.084534 1377.815674,773.320129 
	C1378.987427,771.485046 1378.984253,768.899780 1379.573120,766.365112 
	C1383.706299,766.029602 1387.827515,765.464539 1391.939087,765.527466 
	C1392.935913,765.542725 1394.843262,767.733032 1394.730957,768.745605 
	C1393.869019,776.514221 1392.541138,784.229614 1391.512207,791.982056 
	C1391.101440,795.076965 1389.644775,796.135925 1386.534302,796.025696 
	C1374.213623,795.589172 1361.887329,795.261047 1349.560181,795.078186 
	C1339.588623,794.930237 1329.613159,795.048279 1318.993286,795.048279 
	C1319.209229,793.018799 1319.427246,789.955505 1319.935913,786.941284 
	C1320.056030,786.229309 1321.074585,785.266174 1321.815063,785.124268 
	C1328.726440,783.799622 1329.551392,778.578979 1329.609497,772.995972 
	C1329.736328,760.831726 1329.723877,748.665955 1329.769775,736.000977 
z"/>
<path fill="#0C3F67" opacity="1.000000" stroke="none" 
	d="
M465.994019,704.633667 
	C481.629303,704.172791 496.765625,703.745850 511.897919,703.205994 
	C514.479675,703.113892 516.710205,702.848145 516.199585,706.588623 
	C515.099731,714.645447 514.094788,722.715271 512.973633,731.377502 
	C508.166595,731.665527 503.279266,731.958374 498.660583,732.235107 
	C498.270996,731.696838 498.119690,731.580994 498.098602,731.444946 
	C497.513611,727.673157 499.929871,722.074402 495.405060,720.639648 
	C489.914459,718.898621 483.689850,719.388123 477.773712,719.201843 
	C477.171661,719.182922 476.037018,721.109070 475.948975,722.197205 
	C475.428375,728.631226 475.144165,735.084412 474.777557,741.581055 
	C483.312897,741.581055 491.425385,741.854431 499.505493,741.461853 
	C503.346924,741.275269 504.829163,742.047974 504.067139,746.007019 
	C503.415070,749.394836 503.031921,752.834412 502.449188,756.799683 
	C492.961639,756.799683 483.738586,756.799683 474.064209,756.799683 
	C474.064209,763.913574 473.740265,770.398499 474.277588,776.811218 
	C474.423462,778.551880 477.080963,781.343079 478.739044,781.458984 
	C483.656067,781.802795 488.751526,781.561218 493.585571,780.592285 
	C498.780334,779.551025 500.234741,774.756653 500.766205,770.241943 
	C501.180756,766.720642 502.682098,765.772339 505.873566,765.934143 
	C508.020172,766.043030 510.224640,765.883606 512.342163,765.503845 
	C516.220215,764.808472 517.512878,766.102112 516.847290,770.053162 
	C515.659973,777.101624 514.753113,784.198242 513.794983,791.283691 
	C513.397156,794.226074 512.546997,796.074280 508.872650,796.049438 
	C486.432861,795.897644 463.991516,795.973633 441.020813,795.973633 
	C441.375549,792.574951 441.728455,789.194031 442.070282,785.919189 
	C450.462830,782.856140 451.729523,781.184082 451.784973,772.382324 
	C451.887756,756.061401 451.912445,739.739807 451.901672,723.418457 
	C451.897003,716.343872 451.727051,716.326172 444.884277,715.101990 
	C443.970673,714.938599 442.583252,713.536255 442.604462,712.739380 
	C442.678162,709.974487 443.276245,707.223511 443.651367,704.629578 
	C451.237518,704.629578 458.365631,704.629578 465.994019,704.633667 
z"/>
<path fill="#0D4067" opacity="1.000000" stroke="none" 
	d="
M1462.900146,762.603271 
	C1468.266235,762.218750 1473.219360,761.918396 1478.421265,761.603027 
	C1477.702515,770.647095 1477.149414,779.239319 1476.213379,787.789551 
	C1476.056030,789.227844 1474.490967,791.291321 1473.156982,791.700989 
	C1459.831787,795.792908 1446.215820,798.345581 1432.321167,795.494507 
	C1414.923950,791.924805 1405.003906,780.374329 1402.604370,763.362000 
	C1401.331665,754.338989 1401.663452,744.584106 1403.678711,735.706116 
	C1408.163208,715.950500 1424.632690,703.615051 1446.306030,703.262329 
	C1456.205688,703.101135 1466.137695,705.054688 1476.058716,706.012024 
	C1479.065918,706.302124 1479.409180,708.151550 1479.038574,710.617554 
	C1477.755615,719.153564 1476.516968,727.696167 1475.188110,736.734802 
	C1470.066650,737.085022 1464.656494,737.454956 1458.770630,737.857422 
	C1458.770630,734.823242 1458.927979,732.036560 1458.738525,729.273743 
	C1458.320068,723.175171 1455.585693,720.268433 1449.593750,719.238037 
	C1439.906616,717.572205 1432.208862,721.651245 1429.722534,730.799072 
	C1426.244995,743.594666 1426.486328,756.517456 1431.034790,769.098145 
	C1432.973755,774.461060 1436.458130,778.621460 1442.367554,780.103943 
	C1450.983032,782.265259 1457.119263,778.908936 1459.885010,770.503296 
	C1460.743408,767.895081 1461.619385,765.292664 1462.900146,762.603271 
z"/>
<path fill="#0D4067" opacity="1.000000" stroke="none" 
	d="
M996.192993,724.213257 
	C1007.893921,705.905151 1025.442749,701.946411 1045.072021,703.289062 
	C1051.355957,703.718872 1057.566284,705.152771 1063.832153,705.955627 
	C1066.666870,706.318787 1067.482910,707.729553 1067.086426,710.368042 
	C1065.781860,719.050232 1064.540527,727.741943 1063.224976,736.771973 
	C1057.930664,737.108948 1052.525757,737.453003 1046.770996,737.819336 
	C1046.770996,734.666443 1046.946655,731.853760 1046.734619,729.070618 
	C1046.286987,723.196533 1043.659058,720.397217 1037.910767,719.299683 
	C1027.795410,717.368286 1019.588928,722.045288 1017.301514,731.872314 
	C1014.545227,743.713684 1014.635925,755.708801 1018.349792,767.377258 
	C1021.498352,777.269653 1028.741943,781.891296 1037.416626,780.464844 
	C1045.373413,779.156433 1047.616089,773.083618 1048.810303,766.531738 
	C1049.383179,763.388611 1050.561279,762.281555 1053.563110,762.246155 
	C1057.705566,762.197449 1061.844971,761.882507 1066.385742,761.662170 
	C1065.677612,770.782715 1065.082031,779.653198 1064.189331,788.493652 
	C1064.072876,789.646240 1062.619019,791.263916 1061.462769,791.619751 
	C1047.983154,795.767395 1034.245117,798.321350 1020.174927,795.457458 
	C1005.494446,792.469482 995.888489,783.445374 991.847229,769.061340 
	C987.554199,753.780884 988.405090,738.791321 996.192993,724.213257 
z"/>
<path fill="#0C3F67" opacity="1.000000" stroke="none" 
	d="
M806.893311,769.785645 
	C809.199402,772.818848 810.929382,776.107300 813.628540,778.047546 
	C821.823181,783.937744 831.983765,780.405640 835.279724,770.857483 
	C836.140991,768.362488 836.654907,765.747559 837.455811,762.703369 
	C840.043701,762.490662 842.808044,762.178833 845.580688,762.059937 
	C848.216003,761.946838 850.859924,762.035583 853.952637,762.035583 
	C853.261108,770.980591 852.639832,780.021423 851.752869,789.036133 
	C851.657227,790.008301 850.167114,791.313354 849.074890,791.645752 
	C835.581055,795.752014 821.830017,798.379761 807.775085,795.455505 
	C789.712952,791.697449 778.648743,778.249207 777.369751,757.806519 
	C776.889465,750.130493 777.562927,742.050842 779.496765,734.620117 
	C784.401611,715.773193 800.435181,703.740662 821.497131,703.295044 
	C831.548950,703.082397 841.662781,704.927002 851.702942,706.199463 
	C852.889038,706.349731 854.799438,708.901062 854.654175,710.137268 
	C853.627563,718.876404 852.151489,727.562744 850.745544,736.744263 
	C845.623047,737.091675 840.231079,737.457336 834.199341,737.866394 
	C834.199341,734.698242 834.248962,731.773315 834.188416,728.850647 
	C834.079712,723.608643 831.338501,720.638428 826.262207,719.470825 
	C815.854614,717.076904 807.465027,721.732117 804.920471,732.121338 
	C801.849609,744.660156 802.292358,757.180420 806.893311,769.785645 
z"/>
<path fill="#0B3F67" opacity="1.000000" stroke="none" 
	d="
M271.400208,719.953979 
	C268.968903,725.433594 266.909271,730.719849 264.526611,736.835327 
	C261.475586,737.084045 257.067596,737.443481 253.301788,737.750549 
	C253.301788,726.984985 253.205124,716.406128 253.479462,705.836914 
	C253.502197,704.961426 256.031586,703.427246 257.404266,703.418335 
	C280.662964,703.266418 303.923340,703.257141 327.181610,703.439880 
	C328.490387,703.450073 330.882050,705.359375 330.913544,706.438965 
	C331.203766,716.393066 331.084686,726.359131 331.084686,736.796265 
	C327.452728,737.092712 323.067108,737.450623 318.623627,737.813293 
	C315.716003,729.871826 319.706848,717.087158 303.128632,718.559509 
	C303.128632,731.631165 303.137817,744.734619 303.124329,757.838135 
	C303.118530,763.500488 302.984772,769.163879 303.054718,774.825012 
	C303.146729,782.272705 305.259338,784.234863 312.700348,784.105591 
	C314.359741,784.076782 316.020050,784.101318 318.344086,784.101318 
	C317.990509,787.874207 317.642517,791.587524 317.276093,795.497253 
	C300.006500,795.497253 283.137909,795.497253 265.825867,795.497253 
	C266.139008,792.267334 266.454407,789.014221 266.747314,785.993164 
	C267.220398,785.557007 267.433655,785.182678 267.698425,785.141846 
	C279.575104,783.307678 280.756073,782.001099 280.779816,770.196472 
	C280.811310,754.541443 280.788422,738.886230 280.788818,723.231140 
	C280.788879,721.768860 280.788818,720.306580 280.788818,717.875000 
	C277.376282,718.588623 274.574066,719.174622 271.400208,719.953979 
z"/>
<path fill="#0C3F67" opacity="1.000000" stroke="none" 
	d="
M1512.964478,736.001099 
	C1512.964478,729.853210 1512.964478,724.205139 1512.964478,718.269714 
	C1508.010986,718.522888 1502.858765,717.967041 1500.847656,723.466370 
	C1499.327271,727.624146 1498.813110,732.149902 1497.790527,736.786865 
	C1493.506592,737.105469 1489.101562,737.432983 1485.572510,737.695374 
	C1485.572510,726.941528 1485.472290,716.513855 1485.738647,706.095642 
	C1485.763306,705.127625 1488.129272,703.386353 1489.382568,703.409119 
	C1505.343384,703.699036 1521.297119,704.442200 1537.257935,704.638428 
	C1544.386353,704.726135 1551.532593,703.921997 1558.658325,703.364075 
	C1561.056274,703.176331 1563.227295,703.058533 1563.250488,706.200378 
	C1563.325073,716.321838 1563.278198,726.444214 1563.278198,736.826050 
	C1559.640015,737.115479 1555.360352,737.455872 1550.861816,737.813660 
	C1547.812500,730.235229 1552.114990,717.267090 1536.845703,718.440918 
	C1536.643921,719.115784 1536.314331,719.721008 1536.301514,720.332947 
	C1535.917847,738.478943 1535.445679,756.624390 1535.265991,774.772644 
	C1535.191406,782.297913 1537.482056,784.226685 1544.872559,784.104797 
	C1546.650757,784.075439 1548.429688,784.100403 1550.630859,784.100403 
	C1550.229004,788.080811 1549.869263,791.643372 1549.480347,795.495972 
	C1532.294922,795.495972 1515.419312,795.495972 1498.016724,795.495972 
	C1498.359375,792.270691 1498.717407,788.902100 1499.060303,785.674988 
	C1499.587036,785.383362 1499.850708,785.128662 1500.141724,785.091980 
	C1511.439575,783.668030 1512.930664,781.995911 1512.957886,770.471863 
	C1512.984619,759.148254 1512.964233,747.824585 1512.964478,736.001099 
z"/>
<path fill="#0D4067" opacity="1.000000" stroke="none" 
	d="
M602.429504,732.234192 
	C601.761780,729.605103 601.981018,726.860962 601.090515,724.543213 
	C600.309875,722.511353 598.549377,719.858826 596.751831,719.424500 
	C593.115540,718.545654 589.121826,718.644775 585.359741,719.076050 
	C584.144836,719.215271 582.336975,721.614136 582.268005,723.049744 
	C581.941223,729.852478 582.122009,736.679626 582.122009,744.409363 
	C586.749512,744.409363 592.142395,744.703979 597.492371,744.350220 
	C610.032471,743.520874 610.022583,743.394958 608.164124,755.554443 
	C608.014282,756.534973 607.907837,757.522156 607.709045,759.067566 
	C598.944336,759.067566 590.182068,759.067566 580.527710,759.067566 
	C580.527710,765.037476 580.468750,770.464050 580.545715,775.888672 
	C580.611877,780.548828 583.180237,782.444763 587.686829,781.946838 
	C589.338684,781.764343 590.998169,781.602478 592.630493,781.302063 
	C595.412781,780.789978 596.908569,781.791687 596.575012,784.698792 
	C596.179016,788.149353 595.588196,791.577576 594.982910,795.686646 
	C579.217529,795.686646 563.649902,795.686646 547.686768,795.686646 
	C547.796570,793.866150 547.537720,791.473938 548.195251,789.367920 
	C548.723206,787.676819 550.055542,785.619080 551.566101,784.970703 
	C555.763916,783.168701 557.986084,780.319702 558.003052,775.838684 
	C558.073120,757.342712 557.995911,738.845825 558.163452,720.350952 
	C558.222900,713.793579 553.418030,715.380615 548.817993,714.911682 
	C549.213135,711.395020 549.588196,708.057373 549.972839,704.633911 
	C555.336792,704.633911 560.441467,704.743591 565.540039,704.613770 
	C582.182983,704.190002 598.826721,703.759094 615.462769,703.133667 
	C618.803711,703.008057 619.525696,704.232788 619.180664,707.209473 
	C618.261414,715.138428 617.490356,723.084534 616.607605,731.528564 
	C612.063904,731.784485 607.449036,732.044495 602.429504,732.234192 
z"/>
<path fill="#0D4067" opacity="1.000000" stroke="none" 
	d="
M1263.003662,704.723633 
	C1272.455322,704.723694 1281.406738,704.723694 1290.727661,704.723694 
	C1290.488647,707.243835 1290.492676,710.222900 1289.800537,713.030396 
	C1289.518799,714.173584 1287.856445,715.492004 1286.597778,715.793457 
	C1279.401001,717.517151 1278.295044,718.497803 1278.063232,725.731323 
	C1277.567627,741.201111 1277.156616,756.674561 1276.886108,772.149658 
	C1276.820190,775.916199 1275.608276,780.527161 1281.414673,781.710571 
	C1287.989624,783.050476 1295.061401,780.619385 1296.834717,775.575562 
	C1298.526489,770.763733 1299.259888,765.614929 1300.560669,759.981201 
	C1304.275513,759.574341 1308.518433,758.921631 1312.777100,758.794006 
	C1313.682617,758.766785 1315.524780,760.726807 1315.447144,761.645325 
	C1314.577759,771.919128 1313.338745,782.160889 1312.376099,792.427856 
	C1312.044312,795.965881 1309.936035,796.135376 1307.180298,796.062134 
	C1293.039185,795.686035 1278.896362,795.237305 1264.752441,795.162659 
	C1257.984375,795.126953 1251.212158,795.863037 1244.053589,796.271729 
	C1244.386475,793.063782 1244.441162,790.239807 1245.077026,787.553406 
	C1245.326538,786.499512 1246.732178,785.336731 1247.862183,784.942200 
	C1252.034302,783.485474 1254.106445,780.618958 1254.119629,776.328552 
	C1254.176636,757.687012 1254.123535,739.045105 1254.194458,720.403625 
	C1254.220581,713.522888 1249.004272,715.498596 1244.640137,714.936584 
	C1244.873047,711.635925 1245.100830,708.409241 1245.360962,704.723572 
	C1251.298706,704.723572 1256.901123,704.723572 1263.003662,704.723633 
z"/>
<path fill="#0D4067" opacity="1.000000" stroke="none" 
	d="
M1172.639282,784.869629 
	C1177.225464,783.332092 1178.996338,780.146240 1179.008301,775.950378 
	C1179.061035,757.471680 1179.015137,738.992737 1179.051147,720.514038 
	C1179.058350,716.811829 1177.468262,714.644775 1173.662354,715.135925 
	C1169.343018,715.693359 1168.813599,713.753540 1169.695801,710.236389 
	C1170.094116,708.648499 1170.081665,706.957458 1170.326050,704.648865 
	C1185.256104,704.648865 1200.127319,704.648865 1215.410278,704.648865 
	C1215.254761,706.796753 1214.952026,709.364502 1214.914795,711.936157 
	C1214.875854,714.622986 1213.624390,715.570435 1211.015869,716.002136 
	C1204.418457,717.094299 1203.200562,718.495911 1202.970825,725.165039 
	C1202.432251,740.800537 1201.956177,756.439575 1201.664062,772.081116 
	C1201.594116,775.821655 1200.392456,780.471436 1206.150879,781.706970 
	C1212.894287,783.153809 1219.778931,780.451843 1221.899292,775.223755 
	C1222.827271,772.935852 1223.354492,770.457581 1223.824585,768.019714 
	C1224.295898,765.576050 1224.469482,763.075012 1224.842773,760.035828 
	C1229.697144,759.511475 1234.561890,758.986023 1240.275269,758.368896 
	C1240.089233,761.652466 1240.032227,764.386108 1239.762329,767.098572 
	C1238.938843,775.375854 1237.908081,783.634583 1237.222290,791.922424 
	C1236.955566,795.145203 1235.657227,796.233582 1232.508545,796.080933 
	C1223.531006,795.645752 1214.546021,795.248840 1205.560059,795.130188 
	C1193.600830,794.972229 1181.637939,795.091187 1169.189331,795.091187 
	C1169.984741,792.275269 1167.486450,787.777283 1172.639282,784.869629 
z"/>
<path fill="#0C3F67" opacity="1.000000" stroke="none" 
	d="
M657.327148,782.388000 
	C660.567749,783.630798 663.601746,784.461243 667.480042,785.522705 
	C667.206421,788.241516 666.853455,791.748657 666.476196,795.496582 
	C651.838196,795.496582 637.757385,795.496582 623.454651,795.496582 
	C623.639404,793.411865 623.480957,791.190247 624.122131,789.230347 
	C624.636841,787.656921 625.859741,785.582947 627.220886,785.148315 
	C632.449768,783.478638 634.045898,779.883118 634.040649,774.866089 
	C634.022400,757.366821 634.130615,739.867310 634.109802,722.368042 
	C634.102051,715.851562 633.294067,715.146667 626.976501,715.149414 
	C626.175720,715.149780 625.374878,715.033020 623.850342,714.914062 
	C624.220581,711.464722 624.564209,708.263184 624.965088,704.528320 
	C639.118408,704.528320 653.010437,704.528320 667.251953,704.528320 
	C667.166260,706.455872 666.914978,708.579895 667.016724,710.686890 
	C667.153015,713.508789 666.025146,714.503967 663.250671,715.377075 
	C661.196167,716.023560 658.385742,718.710449 658.324524,720.567810 
	C657.650574,741.028076 657.449646,761.503967 657.327148,782.388000 
z"/>
<path fill="#FAFBFC" opacity="1.000000" stroke="none" 
	d="
M1700.786865,747.096008 
	C1698.895996,746.894958 1697.430664,746.729431 1695.222046,746.479980 
	C1695.666748,737.738892 1696.033813,729.168335 1696.639404,720.614624 
	C1696.703735,719.707642 1698.044678,718.346863 1699.000854,718.135620 
	C1705.186279,716.769043 1713.983887,720.630676 1716.312988,725.501160 
	C1719.345337,731.842896 1716.997070,740.630859 1711.458984,745.296570 
	C1708.237305,748.010803 1704.898560,748.045593 1700.786865,747.096008 
z"/>
<path fill="#FDFDFD" opacity="1.000000" stroke="none" 
	d="
M1598.948853,724.006226 
	C1607.713867,715.902344 1619.423218,717.645020 1623.913818,728.169250 
	C1629.990601,742.410706 1630.198120,757.334534 1625.805054,772.118408 
	C1624.151855,777.682007 1620.055054,781.390564 1613.865845,782.063843 
	C1607.887451,782.714111 1602.351196,781.132507 1599.780273,775.661987 
	C1591.866577,758.823547 1590.612915,741.595398 1598.948853,724.006226 
z"/>
<path fill="#FDFDFD" opacity="1.000000" stroke="none" 
	d="
M1121.051514,719.589783 
	C1126.748901,721.190063 1129.945923,725.038269 1131.612915,729.900452 
	C1136.087769,742.953430 1136.583618,756.363525 1133.418823,769.728210 
	C1131.528320,777.711121 1126.431641,781.781372 1119.689209,782.120056 
	C1112.124146,782.499939 1106.828369,779.059204 1103.998169,770.889221 
	C1099.481079,757.849426 1099.004395,744.407288 1102.228516,731.050964 
	C1104.494995,721.660767 1110.755249,718.111145 1121.051514,719.589783 
z"/>
</svg>